<?xml version="1.0" standalone="no"?>
<!DOCTYPE svg PUBLIC "-//W3C//DTD SVG 20010904//EN"
 "http://www.w3.org/TR/2001/REC-SVG-20010904/DTD/svg10.dtd">
<svg version="1.0" xmlns="http://www.w3.org/2000/svg"
 width="1024.000000pt" height="1024.000000pt" viewBox="0 0 1024.000000 1024.000000"
 preserveAspectRatio="xMidYMid meet">
<metadata>
Created by potrace 1.14, written by Peter Selinger 2001-2017
</metadata>
<g transform="translate(0.000000,1024.000000) scale(0.100000,-0.100000)"
fill="#000000" stroke="none">
<path d="M0 5120 l0 -5120 5120 0 5120 0 0 5120 0 5120 -5120 0 -5120 0 0
-5120z m5255 2690 c285 -27 538 -123 760 -290 102 -77 280 -237 325 -294 l35
-44 170 -5 c94 -3 198 -12 232 -20 60 -14 63 -13 80 6 13 15 14 18 3 13 -13
-7 -13 -6 0 6 8 7 16 20 18 28 7 37 26 70 40 70 13 0 12 3 -4 15 -19 14 -19
14 1 15 41 0 244 -78 325 -125 233 -137 449 -371 583 -634 146 -286 194 -480
204 -821 10 -359 -48 -689 -169 -960 -51 -114 -51 -116 -49 -206 6 -219 -74
-566 -184 -801 -129 -275 -377 -561 -615 -710 -202 -126 -364 -172 -617 -178
-132 -3 -145 -5 -171 -27 -212 -173 -298 -232 -448 -307 -221 -109 -474 -161
-729 -148 -294 15 -575 120 -825 306 -79 60 -300 257 -300 269 0 4 -75 7 -167
7 -184 0 -256 10 -398 57 -268 89 -496 262 -697 529 -153 203 -220 333 -296
572 -60 187 -76 291 -76 507 -1 199 7 266 55 448 53 203 130 378 232 525 61
88 62 89 59 151 -4 76 21 266 49 372 30 112 32 121 22 108 -7 -10 -22 -13 -80
-16 -54 -2 -108 16 -98 33 4 5 1 9 -4 9 -6 0 -11 -6 -12 -12 0 -9 -2 -9 -5 -2
-7 17 70 208 124 307 26 48 76 129 112 180 71 101 264 301 350 364 173 125
365 212 560 254 84 19 135 23 257 23 138 -1 153 1 158 17 7 20 95 92 191 156
186 126 472 228 709 253 106 11 169 11 290 0z"/>
<path d="M4540 7650 c-8 -5 -10 -10 -5 -10 6 0 17 5 25 10 8 5 11 10 5 10 -5
0 -17 -5 -25 -10z"/>
<path d="M4710 7649 c-85 -9 -159 -22 -210 -38 -32 -9 -33 -9 -16 4 37 28 2
15 -88 -34 -50 -27 -143 -84 -205 -127 l-115 -78 80 -17 c418 -91 751 -330
1005 -722 l56 -87 79 71 c97 88 276 223 407 308 151 97 322 171 497 215 52 13
94 28 92 32 -2 5 -11 18 -21 29 -10 11 -21 28 -24 38 -4 10 -11 15 -17 12 -5
-3 -10 -1 -10 4 0 6 -4 11 -8 11 -5 0 -62 30 -128 67 -196 109 -276 143 -554
238 -198 67 -571 101 -820 74z"/>
<path d="M3776 7129 c-129 -15 -235 -49 -386 -123 -114 -56 -179 -105 -290
-216 -166 -164 -274 -339 -355 -570 -62 -179 -93 -320 -94 -424 l-1 -68 70 75
c177 189 441 343 684 400 121 28 442 30 581 5 195 -37 372 -104 563 -214 51
-30 97 -54 101 -54 5 0 39 41 77 92 38 51 96 121 128 156 l59 63 -28 72 c-73
188 -168 340 -295 471 -191 197 -403 310 -633 336 -45 6 -89 9 -97 9 -8 -1
-46 -5 -84 -10z"/>
<path d="M6410 7124 c-14 -2 -52 -9 -85 -15 -67 -12 -258 -68 -320 -94 -236
-100 -509 -280 -700 -464 l-64 -61 39 -83 c21 -45 57 -140 80 -212 23 -71 45
-138 49 -147 5 -15 16 -12 91 24 237 113 511 177 787 185 335 10 598 -51 836
-194 165 -100 397 -319 501 -474 39 -59 55 -76 60 -64 20 53 -7 353 -49 541
-91 404 -283 716 -547 888 -178 116 -329 164 -533 171 -66 2 -131 2 -145 -1z
m49 -74 c47 -66 83 -143 59 -122 -8 6 -17 10 -20 7 -3 -3 -11 1 -18 10 -7 8
-19 15 -26 15 -15 0 -26 5 -84 35 -19 10 -45 23 -57 29 -13 6 -23 14 -23 18 0
4 -21 10 -47 14 l-48 8 90 22 c130 32 126 33 174 -36z"/>
<path d="M4873 6140 c-47 -53 -114 -135 -156 -191 l-28 -37 108 -92 c59 -51
133 -120 165 -154 31 -33 59 -58 63 -54 4 4 4 11 1 17 -4 6 -9 44 -11 85 -7
122 -71 446 -93 468 -4 3 -26 -16 -49 -42z"/>
<path d="M5865 6156 c-111 -29 -178 -53 -323 -114 -112 -47 -113 -47 -108 -77
2 -16 16 -97 30 -180 37 -214 46 -319 53 -585 l6 -235 42 -55 c216 -282 474
-524 653 -614 116 -58 194 -78 332 -83 209 -9 369 35 540 148 215 141 384 351
480 596 38 96 39 105 29 151 -10 49 -100 216 -169 317 -91 132 -271 285 -434
367 -139 70 -345 126 -526 144 -47 4 -68 9 -56 14 13 4 16 9 8 14 -12 7 -111
43 -147 53 -47 12 -131 61 -168 96 -22 20 -46 37 -53 37 -22 0 -28 3 -42 17
-18 18 -42 16 -147 -11z m475 -449 c0 -2 -12 -14 -27 -28 l-28 -24 24 28 c23
25 31 32 31 24z m-98 -114 c-28 -32 -74 -80 -103 -108 -29 -27 -8 -2 46 58
106 114 140 144 57 50z m-182 -196 c0 -2 -17 -19 -37 -38 l-38 -34 34 38 c33
34 41 42 41 34z"/>
<path d="M3425 5750 c-93 -19 -211 -58 -280 -93 -173 -87 -359 -264 -432 -412
-17 -34 -19 -50 -12 -105 21 -174 183 -488 333 -648 92 -97 288 -243 399 -296
191 -92 323 -120 562 -120 196 1 297 13 447 54 174 48 398 141 398 164 0 6 -9
63 -20 126 -12 70 -24 217 -30 375 -7 143 -15 269 -20 280 -13 34 -163 216
-256 310 -143 146 -341 272 -517 331 -165 55 -400 69 -572 34z m1385 -1465 c0
-11 -224 -105 -249 -105 -15 0 60 42 109 61 130 51 140 54 140 44z m-305 -125
c-11 -5 -29 -9 -40 -9 -17 -1 -17 1 -5 9 8 5 26 9 40 9 23 0 23 -1 5 -9z m-65
-14 c0 -2 -9 -6 -20 -9 -11 -3 -20 -1 -20 4 0 5 9 9 20 9 11 0 20 -2 20 -4z"/>
<path d="M2587 4907 c-51 -232 -23 -552 73 -841 52 -154 110 -272 211 -427
136 -209 348 -397 554 -493 86 -40 274 -86 353 -86 l65 0 -22 24 c-14 15 -20
30 -16 37 5 7 4 10 -3 6 -20 -13 -110 183 -99 217 2 6 7 -3 11 -21 9 -37 105
-133 135 -133 10 0 21 -5 23 -11 2 -5 10 -11 18 -12 8 -2 20 -5 25 -9 25 -15
169 -37 260 -39 113 -3 154 8 300 76 109 50 293 168 392 252 109 91 225 202
221 210 -1 5 -28 55 -60 113 -61 114 -113 247 -148 378 -12 45 -25 82 -29 82
-4 0 -17 -7 -29 -16 -68 -47 -301 -124 -487 -161 -129 -25 -505 -25 -622 0
-369 79 -761 334 -948 617 -55 83 -125 215 -152 289 -8 21 -12 13 -26 -52z"/>
<path d="M7585 4334 c-65 -76 -224 -216 -310 -274 -158 -105 -293 -167 -463
-211 -362 -93 -745 -36 -1084 164 -116 68 -212 143 -343 268 -54 52 -96 87
-93 78 4 -9 16 -63 28 -119 43 -206 152 -465 273 -648 183 -278 403 -434 667
-473 113 -16 302 -7 405 21 334 89 679 417 848 805 34 77 133 433 123 442 -2
2 -25 -22 -51 -53z"/>
<path d="M5015 3512 c-278 -268 -592 -446 -905 -513 -47 -9 -71 -18 -55 -18
18 -1 51 -16 80 -37 53 -38 405 -214 428 -214 7 0 17 -4 23 -9 5 -5 65 -28
134 -50 265 -86 453 -92 775 -26 242 50 557 164 588 213 5 7 14 18 21 25 11 9
-12 20 -113 53 -155 50 -256 96 -363 167 -157 102 -282 218 -420 390 -45 56
-84 105 -87 109 -3 3 -51 -37 -106 -90z"/>
<path d="M3948 2973 c6 -2 18 -2 25 0 6 3 1 5 -13 5 -14 0 -19 -2 -12 -5z"/>
</g>
</svg>
